<svg width="114" height="114" viewBox="0 0 114 114" fill="none" xmlns="http://www.w3.org/2000/svg">
<path d="M47.4 99.4999C47.2 99.4999 47 99.4999 46.8 99.3999L47.4 97.2999L46.8 99.3999C45.6 99.0999 44.9 97.8998 45.2 96.6999C45.5 95.4999 46.7 94.7999 47.9 95.0999H48C49.2 95.3999 49.9 96.5999 49.6 97.7999C49.2 98.8999 48.4 99.4999 47.4 99.4999ZM37.4 95.3999C37 95.3999 36.7 95.2999 36.3 95.0999L36.2 94.9999C35.2 94.3999 34.8 92.9999 35.4 91.9999C36 90.9999 37.4 90.5999 38.4 91.1999C39.5 91.7999 39.9 93.1999 39.2 94.1999C38.9 94.9999 38.2 95.3999 37.4 95.3999ZM28.9 88.8999C28.3 88.8999 27.8 88.6999 27.3 88.2999C26.4 87.3999 26.4 85.9999 27.3 85.1999C28.2 84.2999 29.5 84.2999 30.4 85.1999L30.5 85.2999C31.4 86.1999 31.4 87.5999 30.5 88.3999C30 88.5999 29.4 88.8999 28.9 88.8999ZM22.3 80.2999C21.5 80.2999 20.8 79.8998 20.4 79.1999L20.3 79.0999C19.7 77.9999 20.1 76.6999 21.1 76.0999C22.2 75.4999 23.5 75.8999 24.1 76.8999C24.7 77.9999 24.4 79.2999 23.3 79.9999C23.1 80.1999 22.7 80.2999 22.3 80.2999ZM18.1 70.3999C17.1 70.3999 16.3 69.7999 16 68.7999V68.6999C15.7 67.4999 16.4 66.2999 17.6 65.9999C18.8 65.6999 20 66.3999 20.3 67.5999C20.6 68.7999 19.9 69.9999 18.8 70.3999C18.6 70.2999 18.3 70.3999 18.1 70.3999ZM97.8 48.8999C96.8 48.8999 95.9 48.1999 95.7 47.2999C95.4 46.0999 96.1 44.8999 97.2 44.4999C98.4 44.1999 99.6 44.7999 99.9 45.9999V46.0999C100.2 47.2999 99.5 48.4999 98.3 48.7999C98.2 48.8999 98 48.8999 97.8 48.8999ZM93.7 38.9999C93 38.9999 92.2 38.5999 91.8 37.8999L91.7 37.7999C91.1 36.6999 91.5 35.3999 92.5 34.7999C93.6 34.1999 94.9 34.5999 95.5 35.5999L93.6 36.6999L95.5 35.5999C96.1 36.5999 95.8 37.9999 94.8 38.5999C94.5 38.8999 94.1 38.9999 93.7 38.9999ZM87.1 30.3999C86.5 30.3999 86 30.1999 85.5 29.7999L85.4 29.6999C84.5 28.7999 84.5 27.3999 85.4 26.5999C86.3 25.6999 87.7 25.6999 88.5 26.5999C89.4 27.4999 89.4 28.8999 88.5 29.6999C88.3 30.1999 87.7 30.3999 87.1 30.3999ZM78.6 23.8999C78.2 23.8999 77.8 23.7999 77.5 23.5999C76.4 22.9999 76 21.5999 76.7 20.5999C77.3 19.4999 78.6 19.1999 79.7 19.7999L79.8 19.8999C80.8 20.4999 81.2 21.8999 80.6 22.8999C80.1 23.4999 79.3 23.8999 78.6 23.8999ZM68.6 19.7999C68.4 19.7999 68.2 19.7999 68.1 19.6999H68C66.8 19.3999 66.1 18.1999 66.4 16.9999C66.7 15.7999 67.9 15.0999 69.1 15.3999L68.5 17.4999L69.1 15.3999C70.3 15.6999 71 16.8999 70.7 18.0999C70.5 19.0999 69.6 19.7999 68.6 19.7999Z" fill="#2B370F" stroke="#2B370F" stroke-width="0.4"/>
<path d="M16.6 58.8C15.9 58.8 15.4 58.2 15.4 57.6C15.4 34.1 34.4 15 57.9 15C58.6 15 59.1 15.6 59.1 16.2C59.1 16.9 58.5 17.4 57.9 17.4C35.8 17.4 17.9 35.4 17.9 57.4C17.9 58.2 17.3 58.8 16.6 58.8Z" fill="#2B370F" stroke="#2B370F" stroke-width="0.4"/>
<path d="M57.9 100.1C57.2 100.1 56.7 99.5 56.7 98.9C56.7 98.2 57.3 97.7 57.9 97.7C80 97.7 97.9 79.7 97.9 57.7C97.9 57 98.5 56.5 99.1 56.5C99.7 56.5 100.3 57.1 100.3 57.7C100.4 81 81.4 100.1 57.9 100.1Z" fill="#2B370F" stroke="#2B370F" stroke-width="0.4"/>
<path d="M103.1 62.5998C102.7 62.5998 102.4 62.3998 102.1 62.0998L99.1 58.2998L95.1 61.5998C94.6 61.9998 93.8 61.9998 93.3 61.3998C93 60.9998 93 60.1998 93.6 59.7998L98.6 55.5998C98.9 55.3998 99.2 55.2998 99.5 55.2998C99.8 55.2998 100.1 55.4998 100.4 55.7998L104.2 60.5998C104.6 61.0998 104.5 61.8998 104 62.3998C103.7 62.4998 103.4 62.5998 103.1 62.5998Z" fill="#2B370F" stroke="#2B370F" stroke-width="0.4"/>
<path d="M16.3 61.8999C16.2 61.8999 16.2 61.8999 16.3 61.8999C15.9 61.8999 15.6 61.6999 15.3 61.4999L11.3 56.6999C10.9 56.1999 10.9 55.3999 11.5 54.8999C12 54.4999 12.8 54.4999 13.3 55.0999L16.5 58.8999L20.5 55.3999C21 54.8999 21.8 54.9999 22.3 55.4999C22.8 55.9999 22.7 56.7999 22.2 57.2999L17.2 61.6999C16.9 61.7999 16.6 61.8999 16.3 61.8999Z" fill="#2B370F" stroke="#2B370F" stroke-width="0.4"/>
<path d="M76.3 49.4002C75.8 49.2002 75.2 49.0002 74.6 48.9002C74.7 48.5002 74.8 48.1002 74.9 47.8002C76.2 41.7002 75.3 36.8002 72.5 35.1002C69.8 33.5002 65.4 35.2002 60.9 39.0002C60.5 39.4002 60 39.8002 59.6 40.2002C59.3 39.9002 59 39.7002 58.7 39.4002C54 35.3002 49.4 33.5002 46.5 35.1002C43.8 36.7002 43 41.3002 44.1 47.1002C44.2 47.7002 44.3 48.2002 44.5 48.8002C43.8 49.0002 43.2 49.2002 42.6 49.4002C37.1 51.3002 33.6 54.3002 33.6 57.4002C33.6 60.6002 37.4 63.8002 43.1 65.8002C43.5 66.0002 44 66.1002 44.5 66.2002C44.3 66.8002 44.2 67.4002 44.1 68.0002C43 73.7002 43.9 78.2002 46.6 79.8002C49.4 81.4002 54 79.8002 58.6 75.8002C59 75.5002 59.3 75.2002 59.7 74.8002C60.2 75.2002 60.6 75.7002 61.1 76.1002C65.5 79.9002 69.8 81.4002 72.5 79.9002C75.3 78.3002 76.2 73.4002 75 67.5002C74.9 67.0002 74.8 66.6002 74.7 66.1002C75 66.0002 75.3 65.9002 75.7 65.8002C81.6 63.8002 85.5 60.7002 85.5 57.4002C85.5 54.3002 81.9 51.3002 76.3 49.4002ZM75 63.7002C74.7 63.8002 74.4 63.9002 74.1 64.0002C73.4 61.9002 72.6 59.7002 71.5 57.5002C72.5 55.3002 73.4 53.1002 74 51.0002C74.5 51.2002 75 51.3002 75.5 51.5002C80.3 53.1002 83.2 55.6002 83.2 57.5002C83.3 59.4002 80.2 62.0002 75 63.7002ZM72.9 67.9002C73.4 70.5002 73.5 72.9002 73.1 74.7002C72.8 76.4002 72.2 77.5002 71.4 77.9002C69.8 78.8002 66.3 77.6002 62.5 74.4002C62.1 74.0002 61.6 73.6002 61.2 73.2002C62.7 71.6002 64.1 69.8002 65.5 67.7002C68 67.5002 70.4 67.1002 72.5 66.6002C72.7 67.1002 72.8 67.5002 72.9 67.9002ZM51.4 77.8002C49.8 78.4002 48.5 78.4002 47.8 77.9002C46.2 77.0002 45.5 73.3002 46.4 68.5002C46.5 67.9002 46.6 67.4002 46.8 66.8002C48.9 67.3002 51.3 67.6002 53.8 67.8002C55.2 69.8002 56.7 71.7002 58.2 73.3002C57.9 73.6002 57.5 73.9002 57.2 74.2002C55.2 75.9002 53.2 77.2002 51.4 77.8002ZM44 63.7002C41.5 62.8002 39.4 61.7002 38 60.5002C36.7 59.4002 36.1 58.3002 36.1 57.4002C36.1 55.5002 38.9 53.1002 43.6 51.5002C44.2 51.3002 44.8 51.1002 45.4 50.9002C46 53.0002 46.9 55.2002 47.9 57.4002C46.9 59.7002 46 61.9002 45.3 64.0002C44.8 64.0002 44.4 63.9002 44 63.7002ZM46.5 46.7002C45.5 41.7002 46.2 38.0002 47.8 37.0002C49.5 36.0002 53.4 37.4002 57.4 41.0002C57.7 41.2002 57.9 41.5002 58.2 41.7002C56.7 43.3002 55.2 45.1002 53.8 47.2002C51.4 47.4002 49 47.8002 46.9 48.3002C46.7 47.8002 46.6 47.2002 46.5 46.7002ZM68.8 52.2002C68.3 51.3002 67.8 50.5002 67.2 49.6002C68.8 49.8002 70.4 50.1002 71.9 50.4002C71.5 51.8002 70.9 53.3002 70.2 54.9002C69.8 54.0002 69.3 53.1002 68.8 52.2002ZM59.7 43.3002C60.7 44.4002 61.7 45.6002 62.7 47.0002C61.7 47.0002 60.7 46.9002 59.6 46.9002C58.6 46.9002 57.6 46.9002 56.6 47.0002C57.6 45.7002 58.7 44.5002 59.7 43.3002ZM50.5 52.2002C50 53.1002 49.5 54.0002 49 54.9002C48.4 53.4002 47.8 51.9002 47.4 50.4002C48.9 50.1002 50.4 49.8002 52.1 49.6002C51.6 50.5002 51 51.3002 50.5 52.2002ZM52.2 65.4002C50.5 65.2002 48.9 65.0002 47.4 64.6002C47.9 63.1002 48.4 61.6002 49.1 60.0002C49.6 60.9002 50.1 61.8002 50.6 62.7002C51.1 63.7002 51.6 64.6002 52.2 65.4002ZM59.7 71.7002C58.7 70.6002 57.6 69.3002 56.6 68.0002C57.6 68.0002 58.6 68.1002 59.6 68.1002C60.7 68.1002 61.7 68.1002 62.7 68.0002C61.8 69.3002 60.8 70.6002 59.7 71.7002ZM70.3 60.0002C71 61.6002 71.6 63.1002 72 64.5002C70.5 64.8002 68.9 65.1002 67.2 65.3002C67.7 64.4002 68.3 63.6002 68.8 62.7002C69.3 61.8002 69.8 60.9002 70.3 60.0002ZM66.9 61.6002C66.1 63.0002 65.3 64.3002 64.4 65.6002C62.9 65.7002 61.3 65.8002 59.7 65.8002C58.1 65.8002 56.5 65.8002 55 65.7002C54.1 64.4002 53.3 63.1002 52.5 61.7002C51.7 60.3002 51 58.9002 50.3 57.5002C51 56.1002 51.7 54.7002 52.5 53.3002C53.3 51.9002 54.1 50.6002 55 49.3002C56.5 49.2002 58.1 49.1002 59.7 49.1002C61.3 49.1002 62.9 49.2002 64.4 49.3002C65.3 50.6002 66.1 51.9002 66.9 53.3002C67.7 54.7002 68.5 56.1002 69.1 57.4002C68.4 58.8002 67.7 60.2002 66.9 61.6002ZM71.4 37.0002C73.1 38.0002 73.8 42.0002 72.7 47.3002C72.6 47.6002 72.6 48.0002 72.5 48.3002C70.4 47.8002 68 47.4002 65.6 47.2002C64.2 45.2002 62.7 43.3002 61.2 41.7002C61.6 41.3002 62 41.0002 62.4 40.6002C66.2 37.4002 69.8 36.0002 71.4 37.0002ZM59.7 52.8002C62.2 52.8002 64.3 54.9002 64.3 57.4002C64.3 59.9002 62.2 62.0002 59.7 62.0002C57.2 62.0002 55.1 59.9002 55.1 57.4002C55 54.9002 57.1 52.8002 59.7 52.8002Z" fill="#EB4D4B"/>
</svg>
