<svg width="114" height="114" viewBox="0 0 114 114" fill="none" xmlns="http://www.w3.org/2000/svg">
<path d="M57.3 100.3C57.1 100.3 57 100.3 56.8 100.2C41.2 93.3 29.8 83.2 23.8 71.2C14.6 52.9 17.4 24.8 17.5 23.7C17.5 23.3 17.8 23 18.1 22.8C18.4 22.6 18.9 22.6 19.2 22.7C21.8 23.8 24.8 24.3 28.1 24.3C40.4 24.3 52.6 16.7 54.8 14.6C54.9 14.4 55.4 14 56.2 14C56.8 14 57.3 14.3 57.5 14.4C61.4 17.1 74.2 24.2 86.2 24.2C89.5 24.2 92.5 23.7 95.2 22.6C95.6 22.4 96 22.5 96.3 22.7C96.6 22.9 96.9 23.3 96.9 23.7C97 24.9 99.4 52.8 90.6 71.2C80.8 91.5 63.5 98.1 57.7 100.3C57.6 100.3 57.4 100.3 57.3 100.3ZM19.8 25.5C19.4 31.8 18.4 54.9 26 70.1C33.2 84.5 46.9 93.1 57.3 97.8C63.2 95.5 79.3 89 88.3 70.2C95.6 54.9 94.9 31.9 94.5 25.6C92 26.4 89.2 26.8 86.2 26.8C73.7 26.8 60.5 19.6 56.2 16.7C52.6 19.9 40.1 26.8 28 26.8C25.1 26.7 22.4 26.3 19.8 25.5Z" fill="#0F2137" stroke="#0F2137" stroke-width="0.5"/>
<path d="M57.6 75.9999C45.8 75.9999 36.3 66.3999 36.3 54.6999C36.3 42.8999 45.9 33.3999 57.6 33.3999C69.3 33.3999 78.9 42.9999 78.9 54.6999C78.9 66.3999 69.4 75.9999 57.6 75.9999ZM57.6 35.7999C47.2 35.7999 38.8 44.1999 38.8 54.5999C38.8 64.9999 47.2 73.3999 57.6 73.3999C68 73.3999 76.4 64.9999 76.4 54.5999C76.4 44.1999 68 35.7999 57.6 35.7999Z" fill="#EB4D4B"/>
<path d="M56.1 64.5999L46.2 53.4999L48 51.7999L56 60.6999L67.5 45.8999L69.4 47.4999L56.1 64.5999Z" fill="#EB4D4B"/>
</svg>
