<svg width="57" height="54" viewBox="0 0 57 54" fill="none" xmlns="http://www.w3.org/2000/svg">
<path d="M48.55 38.8024L48.5523 39.05H48.8H54.8C55.5442 39.05 56.25 39.7196 56.25 40.7V45C56.25 49.4655 52.7571 53.0532 48.4943 53.25H18.9H18.8994H18.8988H18.8982H18.8976H18.897H18.8964H18.8958H18.8952H18.8946H18.894H18.8934H18.8928H18.8922H18.8916H18.891H18.8903H18.8897H18.8891H18.8885H18.8878H18.8872H18.8866H18.8859H18.8853H18.8847H18.884H18.8834H18.8827H18.8821H18.8814H18.8808H18.8801H18.8795H18.8788H18.8782H18.8775H18.8768H18.8762H18.8755H18.8748H18.8742H18.8735H18.8728H18.8721H18.8715H18.8708H18.8701H18.8694H18.8687H18.868H18.8673H18.8666H18.866H18.8653H18.8646H18.8639H18.8632H18.8625H18.8618H18.861H18.8603H18.8596H18.8589H18.8582H18.8575H18.8568H18.8561H18.8553H18.8546H18.8539H18.8532H18.8524H18.8517H18.851H18.8502H18.8495H18.8488H18.848H18.8473H18.8466H18.8458H18.8451H18.8443H18.8436H18.8428H18.8421H18.8413H18.8406H18.8398H18.8391H18.8383H18.8376H18.8368H18.836H18.8353H18.8345H18.8338H18.833H18.8322H18.8315H18.8307H18.8299H18.8291H18.8284H18.8276H18.8268H18.826H18.8252H18.8245H18.8237H18.8229H18.8221H18.8213H18.8205H18.8197H18.819H18.8182H18.8174H18.8166H18.8158H18.815H18.8142H18.8134H18.8126H18.8118H18.811H18.8102H18.8094H18.8086H18.8078H18.807H18.8061H18.8053H18.8045H18.8037H18.8029H18.8021H18.8013H18.8004H18.7996H18.7988H18.798H18.7972H18.7963H18.7955H18.7947H18.7939H18.793H18.7922H18.7914H18.7906H18.7897H18.7889H18.7881H18.7872H18.7864H18.7856H18.7847H18.7839H18.7831H18.7822H18.7814H18.7805H18.7797H18.7789H18.778H18.7772H18.7763H18.7755H18.7746H18.7738H18.7729H18.7721H18.7712H18.7704H18.7695H18.7687H18.7678H18.767H18.7661H18.7653H18.7644H18.7636H18.7627H18.7619H18.761H18.7602H18.7593H18.7584H18.7576H18.7567H18.7559H18.755H18.7541H18.7533H18.7524H18.7515H18.7507H18.7498H18.749H18.7481H18.7472H18.7464H18.7455H18.7446H18.7438H18.7429H18.742H18.7412H18.7403H18.7394H18.7385H18.7377H18.7368H18.7359H18.7351H18.7342H18.7333H18.7324H18.7316H18.7307H18.7298H18.729H18.7281H18.7272H18.7263H18.7255H18.7246H18.7237H18.7228H18.7219H18.7211H18.7202H18.7193H18.7184H18.7176H18.7167H18.7158H18.7149H18.7141H18.7132H18.7123H18.7114H18.7105H18.7097H18.7088H18.7079H18.707H18.7062H18.7053H18.7044H18.7035H18.7026H18.7018H18.7009H18.7H18.6991H18.6982H18.6974H18.6965H18.6956H18.6947H18.6938H18.693H18.6921H18.6912H18.6903H18.6895H18.6886H18.6877H18.6868H18.6859H18.6851H18.6842H18.6833H18.6824H18.6816H18.6807H18.6798H18.6789H18.6781H18.6772H18.6763H18.6754H18.6745H18.6737H18.6728H18.6719H18.671H18.6702H18.6693H18.6684H18.6676H18.6667H18.6658H18.6649H18.6641H18.6632H18.6623H18.6615H18.6606H18.6597H18.6588H18.658H18.6571H18.6562H18.6554H18.6545H18.6536H18.6528H18.6519H18.651H18.6502H18.6493H18.6485H18.6476H18.6467H18.6459H18.645H18.6441H18.6433H18.6424H18.6416H18.6407H18.6398H18.639H18.6381H18.6373H18.6364H18.6356H18.6347H18.6339H18.633H18.6322H18.6313H18.6305H18.6296H18.6288H18.6279H18.6271H18.6262H18.6254H18.6245H18.6237H18.6228H18.622H18.6211H18.6203H18.6195H18.6186H18.6178H18.6169H18.6161H18.6153H18.6144H18.6136H18.6128H18.6119H18.6111H18.6103H18.6094H18.6086H18.6078H18.607H18.6061H18.6053H18.6045H18.6037H18.6028H18.602H18.6012H18.6004H18.5996H18.5987H18.5979H18.5971H18.5963H18.5955H18.5947H18.5939H18.593H18.5922H18.5914H18.5906H18.5898H18.589H18.5882H18.5874H18.5866H18.5858H18.585H18.5842H18.5834H18.5826H18.5818H18.581H18.5803H18.5795H18.5787H18.5779H18.5771H18.5763H18.5755H18.5748H18.574H18.5732H18.5724H18.5716H18.5709H18.5701H18.5693H18.5685H18.5678H18.567H18.5662H18.5655H18.5647H18.564H18.5632H18.5624H18.5617H18.5609H18.5602H18.5594H18.5587H18.5579H18.5572H18.5564H18.5557H18.5549H18.5542H18.5534H18.5527H18.552H18.5512H18.5505H18.5498H18.549H18.5483H18.5476H18.5468H18.5461H18.5454H18.5447H18.5439H18.5432H18.5425H18.5418H18.5411H18.5404H18.5397H18.539H18.5382H18.5375H18.5368H18.5361H18.5354H18.5347H18.534H18.5334H18.5327H18.532H18.5313H18.5306H18.5299H18.5292H18.5285H18.5279H18.5272H18.5265H18.5258H18.5252H18.5245H18.5238H18.5232H18.5225H18.5218H18.5212H18.5205H18.5199H18.5192H18.5186H18.5179H18.5173H18.5166H18.516H18.5153H18.5147H18.5141H18.5134H18.5128H18.5122H18.5115H18.5109H18.5103H18.5097H18.509H18.5084H18.5078H18.5072H18.5066H18.506H18.5054H18.5048H18.5042H18.5036H18.503H18.5024H18.5018H18.5012H18.5006H18.5C14.0439 53.25 10.45 49.5678 10.45 45V17.1V16.85H10.2H2.2C1.44722 16.85 0.75 16.1713 0.75 15.3V7.3C0.75 3.63069 3.54534 0.75 7.1 0.75H42.1C45.4594 0.75 48.25 3.53554 48.25 7L48.25 7.00236L48.55 38.8024ZM3.75 13.5V13.75H4H9.95H10.2H10.3V13.5H10.45V7.3C10.45 5.36714 8.94322 3.85 7.1 3.85C5.25678 3.85 3.75 5.36714 3.75 7.3V13.5ZM13 3.85H12.5751L12.7815 4.22141C13.2603 5.08334 13.55 6.14141 13.55 7.3V45C13.55 47.8313 15.7552 50.15 18.6 50.15C21.3414 50.15 23.65 47.8347 23.65 45V40.6C23.65 39.7207 24.3473 39.0679 25.0724 39.1485L25.0862 39.15H25.1H45.3H45.5516L45.55 38.8984L45.35 7C45.35 6.99967 45.35 6.99934 45.35 6.99902C45.3495 5.2614 43.9377 3.85 42.2 3.85H13ZM25.0966 49.7547L24.8142 50.15H25.3H48.2C50.9414 50.15 53.25 47.8347 53.25 45V42.4V42.15H53H26.9H26.65V42.4V45C26.65 46.7439 26.0687 48.3937 25.0966 49.7547ZM30.6 10.65H39.6C40.4435 10.65 41.05 11.3189 41.05 12.2C41.05 13.0811 40.4435 13.75 39.6 13.75H30.6C29.8472 13.75 29.15 13.0713 29.15 12.2C29.15 11.3189 29.7565 10.65 30.6 10.65ZM20.1 17.85H39.6C40.4435 17.85 41.05 18.5189 41.05 19.4C41.05 20.2811 40.4435 20.95 39.6 20.95H20.1C19.3472 20.95 18.65 20.2713 18.65 19.4C18.65 18.5189 19.2565 17.85 20.1 17.85ZM20.1 24.95H39.6C40.4435 24.95 41.05 25.6189 41.05 26.5C41.05 27.3811 40.4435 28.05 39.6 28.05H20.1C19.3472 28.05 18.65 27.3713 18.65 26.5C18.65 25.6189 19.2565 24.95 20.1 24.95ZM20.1 32.15H39.6C40.4435 32.15 41.05 32.8189 41.05 33.7C41.05 34.5811 40.4435 35.25 39.6 35.25H20.1C19.3472 35.25 18.65 34.5713 18.65 33.7C18.65 32.8189 19.2565 32.15 20.1 32.15Z" fill="#C0346C" stroke="#0F1A27" stroke-width="0.5"/>
</svg>
