<svg width="114" height="114" viewBox="0 0 114 114" fill="none" xmlns="http://www.w3.org/2000/svg">
<path d="M57.6 83.9001C57.2 83.9001 56.7 83.8001 56.3 83.7001C55.4 83.4001 54.4 82.6001 54.2 82.5001L45.1 73.9001C43.5 72.4001 42.6 70.4001 42.6 68.2001C42.6 66.1001 43.5 64.0001 45.1 62.5001L45.2 62.4001C46.8 60.9001 48.9 60.1001 51.1 60.1001C53.3 60.1001 55.4 60.9001 57 62.4001L57.5 62.9001L58 62.4001C59.6 60.9001 61.7 60.1001 63.9 60.1001C66.1 60.1001 68.2 60.9001 69.8 62.4001L69.9 62.5001C71.5 64.0001 72.4 66.0001 72.4 68.2001C72.4 70.3001 71.5 72.4001 69.9 73.9001L60.6 82.8001C60.5 82.9001 59.8 83.5001 58.8 83.8001C58.5 83.8001 58 83.9001 57.6 83.9001ZM51.1 62.6001C49.5 62.6001 48 63.2001 46.9 64.2001L46.8 64.3001C45.7 65.3001 45.1 66.7001 45.1 68.2001C45.1 69.7001 45.7 71.0001 46.8 72.1001L55.8 80.6001C56.1 80.8001 56.7 81.2001 57 81.3001C57.3 81.4001 57.7 81.4001 58 81.3001C58.5 81.1001 58.9 80.8001 59 80.7001L68.2 72.0001C69.3 71.0001 69.9 69.6001 69.9 68.1001C69.9 66.6001 69.3 65.3001 68.2 64.2001L68.1 64.1001C67 63.1001 65.5 62.5001 63.9 62.5001C62.3 62.5001 60.8 63.1001 59.7 64.1001L57.4 66.3001L55.1 64.2001C54.2 63.2001 52.7 62.6001 51.1 62.6001Z" fill="#EB4D4B"/>
<path d="M23.7 43.8002C23.4 43.8002 23.2 43.7002 23 43.6002C22.4 43.2002 22.3 42.4002 22.7 41.9002L40.1 17.7002C40.5 17.1002 41.3 17.0002 41.8 17.4002C42.4 17.8002 42.5 18.6002 42.1 19.1002L24.8 43.3002C24.5 43.6002 24.1 43.8002 23.7 43.8002Z" fill="#0F2137" stroke="#0F2137" stroke-width="0.5"/>
<path d="M90.5 44.0001C90.1 44.0001 89.7 43.8001 89.5 43.5001L72.5 19.0001C72.1 18.4001 72.3 17.7001 72.8 17.3001C73.4 16.9001 74.1 17.0001 74.5 17.6001L91.5 42.0001C91.9 42.6001 91.7 43.3001 91.2 43.7001C90.9 43.9001 90.7 44.0001 90.5 44.0001Z" fill="#0F2137" stroke="#0F2137" stroke-width="0.5"/>
<path d="M37.2 97.2002C36 97.2002 32 97.0002 29.7 94.2002C28.3 92.5002 27.6 87.5002 27.4 86.6002L21.1 55.1002C21 54.4002 21.4 53.8002 22.1 53.6002C22.8 53.5002 23.4 53.9002 23.6 54.6002L30 86.2002C30.3 88.4002 31.1 91.8002 31.8 92.7002C33.6 94.9002 37.6 94.7002 37.6 94.7002H78.1C78.1 94.7002 81.2 94.7002 82.9 92.8002C84.1 91.4002 84.7 88.9002 84.8 88.1002L90.5 56.7002C90.6 56.0002 91.3 55.6002 92 55.7002C92.7 55.8002 93.1 56.5002 93 57.2002L87.3 88.6002C87.3 88.7002 86.8 92.3002 84.9 94.6002C82.5 97.4002 78.4 97.4002 78.2 97.4002H37.6C37.6 97.2002 37.4 97.2002 37.2 97.2002Z" fill="#0F2137" stroke="#0F2137" stroke-width="0.5"/>
<path d="M93.2 50.1998H20.2C19.6 50.1998 19 49.5998 19 48.9998C19 48.3998 19.6 47.7998 20.2 47.7998H93.2C93.9 47.7998 94.4 48.3998 94.4 48.9998C94.4 49.5998 93.9 50.1998 93.2 50.1998Z" fill="#0F2137" stroke="#0F2137" stroke-width="0.5"/>
</svg>
