<svg width="114" height="114" viewBox="0 0 114 114" fill="none" xmlns="http://www.w3.org/2000/svg">
<path d="M45.1 96.8C45 96.8 44.8 96.8 44.7 96.7L9.6 80.9C9.2 80.8 9 80.4 9 80.1V33.9C9 33.6 9.2 33.3 9.4 33.1C9.6 33 9.8 33 10 33C10.1 33 10.3 33 10.4 33.1L45.5 48.8C45.8 49 46.1 49.3 46.1 49.7V95.8C46.1 96.1 45.9 96.4 45.7 96.6C45.5 96.7 45.3 96.8 45.1 96.8ZM10.9 79.5L44.1 94.4V50.3L10.9 35.4V79.5Z" fill="#2B370F" stroke="#2B370F" stroke-width="0.6"/>
<path d="M45.1 96.7999C44.9 96.7999 44.7 96.6999 44.6 96.5999C44.3 96.3999 44.2 96.0999 44.2 95.7999V49.6999C44.2 49.2999 44.4 48.9999 44.8 48.7999L83.5 32.9999C83.6 32.9999 83.7 32.8999 83.9 32.8999C84.1 32.8999 84.3 32.9999 84.4 33.0999C84.7 33.2999 84.8 33.5999 84.8 33.8999V51.8999C84.8 52.3999 84.4 52.8999 83.8 52.8999C83.2 52.8999 82.8 52.4999 82.8 51.8999V35.2999L46 50.2999V94.3999L59.2 89.1999C59.3 89.1999 59.4 89.0999 59.5 89.0999C59.9 89.0999 60.2 89.2999 60.4 89.6999C60.6 90.1999 60.4 90.6999 59.9 90.8999L45.4 96.5999C45.3 96.6999 45.2 96.7999 45.1 96.7999Z" fill="#2B370F" stroke="#2B370F" stroke-width="0.6"/>
<path d="M11.2 33.8001C10.8 33.8001 10.5 33.6001 10.3 33.2001C10.2 33.0001 10.2 32.7001 10.3 32.5001C10.4 32.3001 10.6 32.1001 10.8 32.0001L47.5 16.2001C47.6 16.1001 47.7 16.1001 47.9 16.1001C48.3 16.1001 48.6 16.3001 48.8 16.7001C49 17.2001 48.8 17.7001 48.3 17.9001L11.6 33.7001C11.5 33.7001 11.3 33.8001 11.2 33.8001Z" fill="#2B370F" stroke="#2B370F" stroke-width="0.6"/>
<path d="M83.9 34.8C83.8 34.8 83.6 34.8 83.5 34.7L47.6 17.8C47.4 17.7 47.2 17.5 47.1 17.3C47 17 47 16.8 47.1 16.5C47.3 16.2 47.6 16 48 16C48.1 16 48.3 16 48.4 16.1L84.3 32.9C84.8 33.1 85 33.7 84.8 34.2C84.6 34.5 84.3 34.8 83.9 34.8Z" fill="#2B370F" stroke="#2B370F" stroke-width="0.6"/>
<path d="M27.7 42.0998C27.3 42.0998 27 41.8998 26.8 41.4998C26.7 41.2998 26.7 40.9998 26.8 40.7998C26.9 40.5998 27.1 40.3998 27.3 40.2998L64.8 24.3998C64.9 24.2998 65 24.2998 65.2 24.2998C65.6 24.2998 65.9 24.4998 66.1 24.8998C66.2 25.0998 66.2 25.3998 66.1 25.5998C66 25.7998 65.8 25.9998 65.6 26.0998L28 41.9998C27.9 41.9998 27.8 42.0998 27.7 42.0998Z" fill="#2B370F" stroke="#2B370F" stroke-width="0.6"/>
<path d="M27.1 54.6C26.6 54.6 26.1 54.2 26.1 53.6V42C26.1 41.5 26.5 41 27.1 41C27.7 41 28.1 41.4 28.1 42V53.7C28 54.2 27.6 54.6 27.1 54.6Z" fill="#2B370F" stroke="#2B370F" stroke-width="0.6"/>
<path d="M25.2 79.3998C24.2 79.3998 23.4 78.5998 23.4 77.5998C23.4 76.5998 24.2 75.7998 25.2 75.7998C26.2 75.7998 27 76.5998 27 77.5998C27 78.5998 26.2 79.3998 25.2 79.3998Z" fill="#2B370F" stroke="#2B370F" stroke-width="0.6"/>
<path d="M31.3 82.1C32.2941 82.1 33.1 81.2941 33.1 80.3C33.1 79.3059 32.2941 78.5 31.3 78.5C30.3059 78.5 29.5 79.3059 29.5 80.3C29.5 81.2941 30.3059 82.1 31.3 82.1Z" fill="#2B370F" stroke="#2B370F" stroke-width="0.6"/>
<path d="M37.5 84.8998C36.5 84.8998 35.7 84.0998 35.7 83.0998C35.7 82.0998 36.5 81.2998 37.5 81.2998C38.5 81.2998 39.3 82.0998 39.3 83.0998C39.3 84.0998 38.5 84.8998 37.5 84.8998Z" fill="#2B370F" stroke="#2B370F" stroke-width="0.6"/>
<path d="M85.2 98.9998C74.5 98.9998 65.5 91.0998 65.5 81.6998C65.5 78.6998 66.4 76.6998 68 74.4998L68.4 73.5998C69.9 69.9998 70.8 67.8998 68.2 64.9998C66 62.5998 66.6 58.3998 66.6 58.1998C66.6 57.9998 66.7 57.7998 66.9 57.6998L70.1 55.3998C70.2 55.2998 70.4 55.2998 70.5 55.2998H71C71.2 55.2998 71.4 55.3998 71.6 55.5998C73.3 57.8998 76 59.1998 79 59.1998C80.9 59.1998 82.8 58.5998 84.3 57.5998C84.5 57.2998 84.7 57.1998 85.1 57.1998C85.4 57.1998 85.6 57.2998 85.9 57.5998C87.4 58.6998 89.3 59.1998 91.2 59.1998C94.2 59.1998 96.9 57.7998 98.6 55.5998C98.7 55.3998 98.9 55.2998 99.2 55.2998H99.7C99.8 55.2998 100 55.2998 100.1 55.3998L103.9 57.3998C104.1 57.4998 104.3 57.6998 104.3 57.9998C104.3 58.1998 104.6 63.0998 102.5 65.9998C100.1 69.2998 100.7 71.7998 102.3 74.3998C103.9 76.6998 104.9 78.7998 104.9 81.7998C104.9 91.0998 95.9 98.9998 85.2 98.9998ZM68 58.7998V58.9998C67.9 59.9998 67.9 62.5998 69.3 64.0998C72.6 67.6998 71.3 70.5998 69.8 74.1998L69.4 75.0998C69.4 75.0998 69.4 75.1998 69.3 75.1998C67.9 77.2998 67 79.0998 67 81.6998C67 90.0998 75.5 97.4998 85.2 97.4998C94.9 97.4998 103.4 90.0998 103.4 81.6998C103.4 79.0998 102.5 77.2998 101.1 75.0998C99.4 72.3998 98.3 69.2998 101.3 65.0998C102.8 62.9998 102.9 59.5998 102.9 58.6998V58.4998L99.7 56.7998L99.4 56.9998C97.4 59.2998 94.5 60.6998 91.3 60.6998C89.2 60.6998 87.1 60.0998 85.4 58.8998L85.2 58.7998L85 58.8998C83.3 59.9998 81.2 60.6998 79.1 60.6998C75.9 60.6998 73 59.3998 71 57.0998L70.8 56.7998L68 58.7998Z" fill="#EB4D4B" stroke="#EB4D4B" stroke-width="0.5"/>
<path d="M89.2 74.0001V69.6001C89.2 67.7001 87.3 66.0001 85.2 66.0001C83.1 66.0001 81.2 67.7001 81.2 69.6001V73.1001H79.3V69.6001C79.3 66.7001 82.1 64.1001 85.2 64.1001C88.3 64.1001 91.1 66.7001 91.1 69.6001V74.0001H89.2Z" fill="#EB4D4B" stroke="#EB4D4B" stroke-width="0.5"/>
<path d="M85.3 82.1001C84.2 82.1001 83.3 81.2001 83.3 80.1001C83.3 79.0001 84.2 78.1001 85.3 78.1001C86.4 78.1001 87.3 79.0001 87.3 80.1001C87.3 81.2001 86.4 82.1001 85.3 82.1001Z" fill="#EB4D4B" stroke="#EB4D4B" stroke-width="0.5"/>
<path d="M85.7 81.1001H84.7V84.8001H85.7V81.1001Z" fill="#EB4D4B" stroke="#EB4D4B" stroke-width="0.5"/>
<path d="M75.7 90.5V72.5H94.5V90.5H75.7ZM77.4 88.8H92.8V74.2H77.4V88.8Z" fill="#EB4D4B" stroke="#EB4D4B" stroke-width="0.5"/>
</svg>
