<svg width="114" height="114" viewBox="0 0 114 114" fill="none" xmlns="http://www.w3.org/2000/svg">
<path d="M42.1 47.0002C42.1 42.9002 46 41.7002 49.4 41.7002C52.9 41.7002 56.8 43.2002 56.8 47.3002C56.8 51.2002 52.9 52.8002 49.5 52.8002C46.7 52.8002 43.4 53.5002 43.4 56.8002V59.7002H56.6V61.1002H42V56.8002C42 52.6002 45.9 51.5002 49.4 51.5002C51.9 51.5002 55.4 50.6002 55.4 47.3002C55.4 43.9002 52 43.0002 49.4 43.0002C46.9 43.0002 43.5 43.9002 43.5 47.1002H42.1V47.0002Z" fill="#EB4D4B" stroke="#EB4D4B"/>
<path d="M71.9 42V55.4H74.3V56.9H71.9V61.2H70.4V56.9H58.7L58.4 55L69.5 42H71.9ZM70.5 43L60 55.3H70.5V43Z" fill="#EB4D4B" stroke="#EB4D4B"/>
<path d="M79.6 35.8C76.1 25.8 67.8 20 57 20C46.2 20 37.9 25.8 34.3 35.8L32.4 35.1C36.3 24.2 45.3 18 57 18C68.7 18 77.7 24.2 81.5 35.1L79.6 35.8Z" fill="#0F2137" stroke="#2B370F" stroke-width="0.5"/>
<path d="M83.4 46.1H81.4C81.4 33.5 73.8 20 57 20C40.2 20 32.6 33.5 32.6 46.1H30.6C30.6 32.6 38.9 18 57 18C75.1 18 83.4 32.6 83.4 46.1Z" fill="#0F2137" stroke="#2B370F" stroke-width="0.5"/>
<path d="M86.6 64.4001H81.4V45.1001H86.7C91.5 45.2001 95.5 49.5001 95.5 54.7001C95.5 60.0001 91.5 64.3001 86.6 64.4001ZM83.4 62.4001H86.5C90.3 62.4001 93.4 59.0001 93.4 54.8001C93.4 50.6001 90.3 47.2001 86.5 47.2001H83.4V62.4001Z" fill="#0F2137" stroke="#2B370F" stroke-width="0.5"/>
<path d="M32.6 64.4002H27.4C22.8 64.3002 19 60.0002 19 54.8002C19 49.5002 22.7 45.3002 27.3 45.2002H32.6V64.4002ZM27.5 47.1002C23.9 47.1002 21 50.5002 21 54.7002C21 58.9002 23.9 62.3002 27.5 62.3002H30.6V47.1002H27.5Z" fill="#0F2137" stroke="#2B370F" stroke-width="0.5"/>
<path d="M48.7 88.1998C35.5 82.3998 30.6 69.5998 30.6 62.7998H32.6C32.6 68.9998 37.2 80.8998 49.5 86.2998L48.7 88.1998Z" fill="#0F2137" stroke="#2B370F" stroke-width="0.5"/>
<path d="M58 95.6998C57.6 95.6998 57.1 95.5998 56.7 95.4998L50.7 93.3998C48.4 92.5998 47.3 89.6998 48.2 86.9998C49 84.7998 50.8 83.2998 52.9 83.2998C53.3 83.2998 53.8 83.3998 54.2 83.4998L60.2 85.5998C61.4 85.9998 62.3 86.8998 62.7 88.1998C63.1 89.3998 63.1 90.7998 62.7 91.9998C61.8 94.2998 60 95.6998 58 95.6998ZM52.8 85.2998C51.7 85.2998 50.5 86.2998 50 87.6998C49.4 89.3998 50 91.0998 51.2 91.5998L57.2 93.6998C58.5 94.0998 60 93.0998 60.6 91.3998C60.9 90.4998 60.9 89.6998 60.6 88.8998C60.4 88.1998 59.9 87.6998 59.3 87.4998L53.3 85.3998C53.2 85.2998 53 85.2998 52.8 85.2998Z" fill="#0F2137" stroke="#2B370F" stroke-width="0.5"/>
</svg>
