<svg width="110" height="110" viewBox="0 0 110 110" fill="none" xmlns="http://www.w3.org/2000/svg">
<path d="M19.907 46.0887H12.7589C11.2353 46.0887 9.99998 44.8534 9.99998 43.3297V26.432C9.99998 24.9081 11.2353 23.6729 12.7589 23.6729H19.907V46.0887Z" fill="url(#paint0_linear_15_54)"/>
<path d="M19.907 86.327H12.7589C11.2353 86.327 9.99998 85.0917 9.99998 83.5678V66.6701C9.99998 65.1463 11.2353 63.9111 12.7589 63.9111H19.907V86.327Z" fill="url(#paint1_linear_15_54)"/>
<path d="M91.9667 97.5233H22.9875C18.5507 97.5233 14.9538 93.9265 14.9538 89.4896V20.5105C14.9538 16.0736 18.5507 12.4768 22.9875 12.4768H91.9667C96.4035 12.4768 100 16.0736 100 20.5105V89.4896C100 93.9265 96.4035 97.5233 91.9667 97.5233Z" fill="url(#paint2_linear_15_54)"/>
<path d="M100.001 89.4896V43.153L84.7107 27.7667C83.0573 26.1153 80.7443 26.4818 79.091 28.1332L69.9447 37.2795C66.3874 34.8716 62.0968 33.0984 57.4776 33.0984C45.1788 33.0984 35.5763 42.7009 35.5763 54.9997C35.5763 59.619 37.1661 64.0928 39.5741 67.6501L30.4278 76.6133C28.7764 78.2666 28.593 80.5796 30.2444 82.233L45.6203 97.5233H91.9675C96.4042 97.5233 100.001 93.9264 100.001 89.4896Z" fill="url(#paint3_linear_15_54)"/>
<path d="M57.4794 67.2918C64.268 67.2918 69.7712 61.7885 69.7712 54.9999C69.7712 48.2113 64.268 42.708 57.4794 42.708C50.6907 42.708 45.1875 48.2113 45.1875 54.9999C45.1875 61.7885 50.6907 67.2918 57.4794 67.2918Z" fill="url(#paint4_linear_15_54)"/>
<path d="M48.5454 69.9159L36.2283 82.2331C34.575 83.8845 31.8953 83.8845 30.2421 82.2331C28.5907 80.5797 28.5907 77.9 30.2421 76.2468L42.5592 63.9297C44.031 66.384 46.0913 68.4442 48.5454 69.9159Z" fill="url(#paint5_linear_15_54)"/>
<path d="M85.9476 30.7598C85.9476 31.8429 85.5334 32.9263 84.7086 33.7529L72.3914 46.07C70.9197 43.6158 68.8594 41.5555 66.4052 40.0838L78.7223 27.7666C80.3757 26.1152 83.0554 26.1152 84.7086 27.7666C85.5334 28.5934 85.9476 29.6766 85.9476 30.7598Z" fill="url(#paint6_linear_15_54)"/>
<path d="M36.2283 27.7666L48.5454 40.0838C46.0913 41.5555 44.031 43.6158 42.5592 46.07L30.2421 33.7529C28.5907 32.0995 28.5907 29.4198 30.2421 27.7666C31.8955 26.1152 34.5752 26.1152 36.2283 27.7666Z" fill="url(#paint7_linear_15_54)"/>
<path d="M84.7086 82.233C83.882 83.0579 82.7986 83.472 81.7154 83.472C80.6323 83.472 79.5489 83.0579 78.7223 82.233L66.4052 69.9159C68.8594 68.4442 70.9197 66.3839 72.3914 63.9297L84.7086 76.2468C86.36 77.9002 86.36 80.5799 84.7086 82.233Z" fill="url(#paint8_linear_15_54)"/>
<path d="M57.4756 32.7319C45.1768 32.7319 35.2076 42.7011 35.2076 54.9999C35.2076 67.2987 45.1768 77.2678 57.4756 77.2678C69.7744 77.2678 79.7435 67.2987 79.7435 54.9999C79.7435 42.7011 69.7744 32.7319 57.4756 32.7319ZM57.4756 66.0009C51.3995 66.0009 46.4746 61.0759 46.4746 54.9999C46.4746 48.9238 51.3995 43.9989 57.4756 43.9989C63.5517 43.9989 68.4766 48.9238 68.4766 54.9999C68.4766 61.0759 63.5517 66.0009 57.4756 66.0009Z" fill="url(#paint9_linear_15_54)"/>
<path d="M57.4766 72.3832C67.0773 72.3832 74.8599 64.6006 74.8599 54.9999C74.8599 45.3992 67.0773 37.6167 57.4766 37.6167C47.8759 37.6167 40.0934 45.3992 40.0934 54.9999C40.0934 64.6006 47.8759 72.3832 57.4766 72.3832ZM57.4766 43.9988C63.5527 43.9988 68.4776 48.9237 68.4776 54.9998C68.4776 61.0758 63.5527 66.0008 57.4766 66.0008C51.4006 66.0008 46.4756 61.0758 46.4756 54.9998C46.4756 48.9237 51.4006 43.9988 57.4766 43.9988Z" fill="url(#paint10_linear_15_54)"/>
<path d="M14.9538 81.9661V89.4895C14.9538 93.9264 18.5507 97.5232 22.9875 97.5232H91.9667C96.4035 97.5232 100 93.9264 100 89.4895V81.9661H14.9538Z" fill="url(#paint11_linear_15_54)"/>
<path d="M100.001 51.1311L92.7539 43.8837C92.2529 43.2912 91.5052 42.9143 90.6685 42.9143C89.1599 42.9143 87.9371 44.1372 87.9371 45.6457V64.7665C87.9371 65.6031 88.3142 66.3508 88.9065 66.8518L100.001 77.9469V51.1311Z" fill="url(#paint12_linear_15_54)"/>
<path d="M90.462 67.2918C88.9534 67.2918 87.7305 66.0689 87.7305 64.5604V45.4397C87.7305 43.931 88.9534 42.7083 90.4619 42.7083C91.9705 42.7083 93.1933 43.9312 93.1933 45.4397V64.5604C93.1935 66.0689 91.9707 67.2918 90.462 67.2918Z" fill="url(#paint13_linear_15_54)"/>
<defs>
<linearGradient id="paint0_linear_15_54" x1="11.2877" y1="34.8809" x2="14.587" y2="34.8809" gradientUnits="userSpaceOnUse">
<stop stop-color="#7FAEF4"/>
<stop offset="1" stop-color="#4C8DF1"/>
</linearGradient>
<linearGradient id="paint1_linear_15_54" x1="11.2877" y1="75.119" x2="14.587" y2="75.119" gradientUnits="userSpaceOnUse">
<stop stop-color="#7FAEF4"/>
<stop offset="1" stop-color="#4C8DF1"/>
</linearGradient>
<linearGradient id="paint2_linear_15_54" x1="32.8727" y1="30.3956" x2="93.4504" y2="90.9732" gradientUnits="userSpaceOnUse">
<stop stop-color="#7FAEF4"/>
<stop offset="1" stop-color="#4C8DF1"/>
</linearGradient>
<linearGradient id="paint3_linear_15_54" x1="76.9454" y1="74.4677" x2="53.1041" y2="50.6264" gradientUnits="userSpaceOnUse">
<stop stop-color="#4C8DF1" stop-opacity="0"/>
<stop offset="0.5631" stop-color="#466CC8" stop-opacity="0.563"/>
<stop offset="1" stop-color="#4256AC"/>
</linearGradient>
<linearGradient id="paint4_linear_15_54" x1="62.3367" y1="59.8573" x2="49.0776" y2="46.5981" gradientUnits="userSpaceOnUse">
<stop stop-color="#4C8DF1" stop-opacity="0"/>
<stop offset="0.5631" stop-color="#466CC8" stop-opacity="0.563"/>
<stop offset="1" stop-color="#4256AC"/>
</linearGradient>
<linearGradient id="paint5_linear_15_54" x1="35.9725" y1="72.6532" x2="40.1063" y2="76.787" gradientUnits="userSpaceOnUse">
<stop stop-color="#E3E5E4"/>
<stop offset="1" stop-color="#CBD0E4"/>
</linearGradient>
<linearGradient id="paint6_linear_15_54" x1="75.1287" y1="33.4968" x2="79.2625" y2="37.6308" gradientUnits="userSpaceOnUse">
<stop stop-color="#E3E5E4"/>
<stop offset="1" stop-color="#CBD0E4"/>
</linearGradient>
<linearGradient id="paint7_linear_15_54" x1="39.2721" y1="34.0469" x2="34.4742" y2="38.8449" gradientUnits="userSpaceOnUse">
<stop stop-color="#E3E5E4"/>
<stop offset="1" stop-color="#CBD0E4"/>
</linearGradient>
<linearGradient id="paint8_linear_15_54" x1="78.4285" y1="73.203" x2="73.6304" y2="78.0011" gradientUnits="userSpaceOnUse">
<stop stop-color="#E3E5E4"/>
<stop offset="1" stop-color="#CBD0E4"/>
</linearGradient>
<linearGradient id="paint9_linear_15_54" x1="49.2032" y1="46.7275" x2="66.2568" y2="63.7811" gradientUnits="userSpaceOnUse">
<stop stop-color="#EBEFF0"/>
<stop offset="1" stop-color="#E3E5E4"/>
</linearGradient>
<linearGradient id="paint10_linear_15_54" x1="63.9344" y1="61.4577" x2="50.6216" y2="48.1449" gradientUnits="userSpaceOnUse">
<stop stop-color="#E3E5E4"/>
<stop offset="1" stop-color="#CBD0E4"/>
</linearGradient>
<linearGradient id="paint11_linear_15_54" x1="57.4771" y1="90.4824" x2="57.4771" y2="102.638" gradientUnits="userSpaceOnUse">
<stop stop-color="#4256AC" stop-opacity="0"/>
<stop offset="1" stop-color="#1B1464"/>
</linearGradient>
<linearGradient id="paint12_linear_15_54" x1="97.9283" y1="60.9814" x2="88.9929" y2="58.9652" gradientUnits="userSpaceOnUse">
<stop stop-color="#4C8DF1" stop-opacity="0"/>
<stop offset="0.5631" stop-color="#466CC8" stop-opacity="0.563"/>
<stop offset="1" stop-color="#4256AC"/>
</linearGradient>
<linearGradient id="paint13_linear_15_54" x1="89.8283" y1="55" x2="92.7221" y2="55" gradientUnits="userSpaceOnUse">
<stop stop-color="#E3E5E4"/>
<stop offset="1" stop-color="#CBD0E4"/>
</linearGradient>
</defs>
</svg>
