<svg width="114" height="114" viewBox="0 0 114 114" fill="none" xmlns="http://www.w3.org/2000/svg">
<path d="M17.05 51.8001C16.7848 51.8001 16.5304 51.6948 16.3429 51.5072C16.1553 51.3197 16.05 51.0653 16.05 50.8001V22.6201C16.0475 22.4772 16.0756 22.3354 16.1326 22.2043C16.1895 22.0732 16.2739 21.9559 16.38 21.8601L32.79 6.29012C32.8846 6.19624 32.9971 6.12222 33.1207 6.07241C33.2443 6.02261 33.3767 5.99803 33.51 6.00012H81.12C84.87 6.00012 87.48 8.76012 87.48 12.7101V45.3501C87.48 45.6286 87.3694 45.8957 87.1724 46.0926C86.9755 46.2895 86.7085 46.4001 86.43 46.4001C86.1515 46.4001 85.8844 46.2895 85.6875 46.0926C85.4906 45.8957 85.38 45.6286 85.38 45.3501V12.7101C85.38 9.91012 83.71 8.10012 81.12 8.10012H33.93L18.1 23.0701V50.7501C18.1072 50.8899 18.0849 51.0296 18.0347 51.1603C17.9845 51.2909 17.9074 51.4096 17.8084 51.5085C17.7094 51.6075 17.5908 51.6846 17.4601 51.7348C17.3295 51.7851 17.1898 51.8073 17.05 51.8001Z" fill="#2B370F" stroke="#0F2137" stroke-width="0.5"/>
<path d="M23.6 85.5902C21.6367 85.5167 19.771 84.7153 18.3662 83.3418C16.9613 81.9684 16.1178 80.1213 16 78.1602V50.7502C16 50.4717 16.1106 50.2046 16.3075 50.0077C16.5045 49.8108 16.7715 49.7002 17.05 49.7002C17.3285 49.7002 17.5955 49.8108 17.7925 50.0077C17.9894 50.2046 18.1 50.4717 18.1 50.7502V78.1602C18.2268 79.5599 18.8517 80.8677 19.861 81.8458C20.8703 82.8238 22.197 83.4073 23.6 83.4902H51.74C51.8779 83.4902 52.0144 83.5173 52.1418 83.5701C52.2692 83.6229 52.385 83.7002 52.4825 83.7977C52.58 83.8952 52.6573 84.011 52.7101 84.1384C52.7628 84.2658 52.79 84.4023 52.79 84.5402C52.79 84.6781 52.7628 84.8146 52.7101 84.942C52.6573 85.0694 52.58 85.1852 52.4825 85.2827C52.385 85.3802 52.2692 85.4575 52.1418 85.5103C52.0144 85.563 51.8779 85.5902 51.74 85.5902H23.6Z" fill="#2B370F" stroke="#0F2137" stroke-width="0.5"/>
<path d="M19.3 26.1201C19.0215 26.1201 18.7545 26.0095 18.5575 25.8126C18.3606 25.6156 18.25 25.3486 18.25 25.0701C18.25 24.7916 18.3606 24.5245 18.5575 24.3276C18.7545 24.1307 19.0215 24.0201 19.3 24.0201H26.68C30.86 24.0201 33.12 19.9301 33.12 16.0801V8.4001C33.12 8.12162 33.2306 7.85455 33.4275 7.65764C33.6245 7.46072 33.8915 7.3501 34.17 7.3501C34.4485 7.3501 34.7155 7.46072 34.9125 7.65764C35.1094 7.85455 35.22 8.12162 35.22 8.4001V16.0801C35.22 20.9501 32.22 26.0801 26.68 26.0801L19.3 26.1201Z" fill="#2B370F" stroke="#0F2137" stroke-width="0.5"/>
<path d="M35.47 74.2299C33.9585 74.2249 32.4793 73.7918 31.2038 72.9808C29.9283 72.1697 28.9087 71.0139 28.263 69.6473C27.6174 68.2806 27.3721 66.759 27.5556 65.2586C27.7391 63.7583 28.3439 62.3407 29.3 61.1699L43.62 42.5299L43.54 42.3599C42.0582 39.2824 41.5143 35.8369 41.9763 32.4526C42.4382 29.0682 43.8854 25.8945 46.1378 23.3266C48.3901 20.7588 51.3481 18.9102 54.6433 18.011C57.9386 17.1119 61.4255 17.2019 64.67 18.2699C64.8307 18.3193 64.9763 18.4085 65.0934 18.5291C65.2105 18.6497 65.2953 18.7978 65.34 18.9599C65.3923 19.1183 65.4042 19.2873 65.3745 19.4515C65.3448 19.6157 65.2745 19.7698 65.17 19.8999L57.75 29.6699L64.75 34.9699L72.1 25.2599C72.205 25.1282 72.3391 25.0227 72.4918 24.9515C72.6445 24.8804 72.8116 24.8456 72.98 24.8499C73.1498 24.8559 73.3156 24.9027 73.4635 24.9862C73.6115 25.0698 73.7371 25.1876 73.83 25.3299C75.7437 28.3336 76.6902 31.8519 76.5417 35.4103C76.3933 38.9687 75.1572 42.396 73 45.2299C71.3984 47.3557 69.3239 49.0795 66.9409 50.265C64.5579 51.4504 61.9316 52.065 59.27 52.0599C58.2645 52.0576 57.2609 51.9706 56.27 51.7999H56.09L43.42 68.5599C42.37 70.2799 39.53 74.2299 35.47 74.2299ZM59.22 19.4999C56.5654 19.4999 53.9564 20.1905 51.6495 21.504C49.3426 22.8175 47.4172 24.7086 46.0624 26.9915C44.7076 29.2744 43.9701 31.8704 43.9223 34.5246C43.8746 37.1788 44.5182 39.7998 45.79 42.1299C45.8868 42.3083 45.9298 42.5109 45.9138 42.7132C45.8978 42.9156 45.8236 43.1089 45.7 43.2699L31 62.4799C30.2868 63.3398 29.8329 64.3848 29.6912 65.4929C29.5496 66.601 29.7259 67.7266 30.1998 68.7383C30.6737 69.7499 31.4255 70.606 32.3675 71.2065C33.3095 71.8071 34.4028 72.1273 35.52 72.1299C38.62 72.1299 41.02 68.5399 41.68 67.4399L41.74 67.3499L54.76 49.9999C54.8588 49.8706 54.9859 49.7656 55.1314 49.6928C55.277 49.62 55.4373 49.5814 55.6 49.5799C55.6763 49.5702 55.7536 49.5702 55.83 49.5799C56.946 49.8308 58.0862 49.9582 59.23 49.9599C61.5671 49.9677 63.8737 49.4292 65.9658 48.3875C68.058 47.3458 69.8777 45.8296 71.28 43.9599C72.9773 41.7477 74.0352 39.1122 74.3385 36.3405C74.6418 33.5687 74.1788 30.7668 73 28.2399L72.79 27.7899L65.79 37.0799C65.7095 37.1922 65.6067 37.2866 65.4879 37.3572C65.3692 37.4277 65.2371 37.4729 65.1 37.4899H64.95C64.721 37.4909 64.4986 37.4132 64.32 37.2699L55.68 30.6999C55.5646 30.621 55.467 30.5188 55.3936 30.3998C55.3202 30.2808 55.2725 30.1478 55.2536 30.0093C55.2348 29.8708 55.2452 29.7299 55.2842 29.5956C55.3232 29.4614 55.3899 29.3368 55.48 29.2299L62.61 19.8499L62.13 19.7599C61.1705 19.5808 60.1961 19.4937 59.22 19.4999Z" fill="#2B370F" stroke="#0F2137" stroke-width="0.5"/>
<path d="M35.84 67.9302C35.408 67.9342 34.9846 67.8097 34.6235 67.5726C34.2624 67.3355 33.9798 66.9964 33.8118 66.5984C33.6437 66.2004 33.5977 65.7615 33.6795 65.3373C33.7613 64.9131 33.9674 64.5228 34.2714 64.2159C34.5755 63.9091 34.9639 63.6994 35.3873 63.6137C35.8107 63.5279 36.2501 63.5699 36.6496 63.7343C37.0491 63.8987 37.3907 64.1781 37.6312 64.537C37.8716 64.8959 38 65.3182 38 65.7502C38 66.3249 37.7731 66.8764 37.3686 67.2847C36.9641 67.6929 36.4147 67.9249 35.84 67.9302Z" fill="#2B370F" stroke="#0F2137" stroke-width="0.5"/>
<path d="M71.77 106.25C71.5844 106.259 71.4 106.216 71.2375 106.126C71.075 106.036 70.9408 105.902 70.85 105.74L68.66 100.9L63.37 102.05H63.15C62.988 102.051 62.828 102.014 62.6824 101.943C62.5367 101.872 62.4094 101.768 62.31 101.64C62.1921 101.481 62.1204 101.292 62.1027 101.094C62.0851 100.897 62.1222 100.698 62.21 100.52L67.21 90.6602C67.73 91.0702 68.31 91.4701 68.95 91.8801L65.07 99.5002L69.07 98.6402C69.143 98.6304 69.217 98.6304 69.29 98.6402C69.502 98.6253 69.7132 98.6783 69.893 98.7916C70.0728 98.9049 70.2119 99.0725 70.29 99.2701L71.88 103L76.14 94.6002C76.8825 94.7068 77.6303 94.7735 78.38 94.8002L72.75 105.8C72.6511 105.956 72.5109 106.082 72.345 106.163C72.179 106.244 71.9939 106.278 71.81 106.26L71.77 106.25Z" fill="#EB4D4B"/>
<path d="M88.28 107.25C88.0805 107.237 87.8886 107.169 87.7247 107.054C87.5608 106.94 87.4313 106.783 87.35 106.6L81.35 94.7303C82.0771 94.648 82.7984 94.521 83.51 94.3503L88.22 103.61L89.86 99.8903C89.9453 99.6978 90.0859 99.5351 90.264 99.4229C90.4421 99.3107 90.6496 99.2541 90.86 99.2603H91.09L95.09 100.13L90.53 91.1302C91.1073 90.7035 91.6615 90.2462 92.19 89.7603L97.98 101.12C98.0637 101.287 98.1026 101.472 98.0926 101.658C98.0827 101.844 98.0243 102.025 97.9233 102.181C97.8222 102.338 97.682 102.465 97.5166 102.551C97.3512 102.637 97.1662 102.678 96.98 102.67C96.9103 102.68 96.8396 102.68 96.77 102.67L91.47 101.54L89.29 106.54C89.215 106.732 89.0883 106.898 88.9241 107.022C88.7599 107.146 88.5646 107.221 88.36 107.24L88.28 107.25Z" fill="#EB4D4B"/>
<path d="M68 91.1303L62.26 88.0004L61.11 81.6303L58.27 75.7204L61.09 69.8804L62.26 63.4304L68 60.3904L72.74 55.8604L79.16 56.7404L85.66 55.8604L90.33 60.3404L96.11 63.4504L97.26 69.8304L100.1 75.7403L97.28 81.5704L96.08 88.0004L90.37 91.0603L85.63 95.6003L79.21 94.7104L72.71 95.6003L68 91.1303ZM84.87 93.3904L89.07 89.3904L94.15 86.6904L95.15 80.9503L97.66 75.7803L95.2 70.4903L94.2 64.8204L89.06 62.0704L84.92 58.0704L79.14 58.8703L73.44 58.0704L69.24 62.0704L64.16 64.7704L63.16 70.5104L60.65 75.6904L63.14 81.0004L64.14 86.6604L69.28 89.4104L73.42 93.4104L79.16 92.6204L84.87 93.3904Z" fill="#EB4D4B"/>
<path d="M80.1643 85.75H77.3381V72.2959H72.716V70.2646C74.0114 70.2449 75.1007 69.9113 75.9839 69.2636C76.8671 68.5963 77.4166 67.7327 77.6325 66.6729H80.1643V85.75Z" fill="#EB4D4B"/>
</svg>
