<svg width="114" height="114" viewBox="0 0 114 114" fill="none" xmlns="http://www.w3.org/2000/svg">
<path d="M90.5 78.3999H13.5C12.7 78.3999 12 77.6999 12 76.8999V25.8999C12 25.0999 12.7 24.3999 13.5 24.3999H62C62.8 24.3999 63.5 25.0999 63.5 25.8999C63.5 26.6999 62.8 27.3999 62 27.3999H15V75.3999H89V48.3999C89 47.5999 89.7 46.8999 90.5 46.8999C91.3 46.8999 92 47.5999 92 48.3999V76.8999C92 77.7999 91.3 78.3999 90.5 78.3999Z" fill="#0F2137"/>
<path d="M27 64.9002L25.3 63.1002L48.9 40.8002L60.5 51.5002L96.1 18.7002L97.8 20.6002L60.6 54.9002L48.9 44.3002L27 64.9002Z" fill="#EB4D4B"/>
<path d="M98.6 23.1L100.9 16L93.6 17.6L98.6 23.1Z" fill="#EB4D4B"/>
<path d="M52.5 91.8999C51.7 91.8999 51 91.1999 51 90.3999V77.3999C51 76.5999 51.7 75.8999 52.5 75.8999C53.3 75.8999 54 76.5999 54 77.3999V90.3999C54 91.2999 53.3 91.8999 52.5 91.8999Z" fill="#0F2137"/>
<path d="M67 97.3999H38C37.2 97.3999 36.5 96.6999 36.5 95.8999C36.5 95.0999 37.2 94.3999 38 94.3999H67C67.8 94.3999 68.5 95.0999 68.5 95.8999C68.5 96.6999 67.8 97.3999 67 97.3999Z" fill="#0F2137"/>
</svg>
