<svg width="53" height="54" viewBox="0 0 53 54" fill="none" xmlns="http://www.w3.org/2000/svg">
<path d="M46.8645 42.2145L46.7542 42.3543L46.8241 42.5182L50.3241 50.7182L50.3243 50.7186C50.5794 51.3139 50.498 51.8942 50.0695 52.4083L50.0695 52.4083L50.0657 52.413C49.7183 52.8473 49.202 53.1004 48.7 53.1004H48.6994H48.6988H48.6982H48.6977H48.6971H48.6965H48.6959H48.6953H48.6947H48.6941H48.6936H48.693H48.6924H48.6918H48.6912H48.6906H48.69H48.6895H48.6889H48.6883H48.6877H48.6871H48.6865H48.6859H48.6854H48.6848H48.6842H48.6836H48.683H48.6824H48.6818H48.6813H48.6807H48.6801H48.6795H48.6789H48.6783H48.6777H48.6772H48.6766H48.676H48.6754H48.6748H48.6742H48.6736H48.673H48.6725H48.6719H48.6713H48.6707H48.6701H48.6695H48.6689H48.6684H48.6678H48.6672H48.6666H48.666H48.6654H48.6648H48.6643H48.6637H48.6631H48.6625H48.6619H48.6613H48.6607H48.6602H48.6596H48.659H48.6584H48.6578H48.6572H48.6566H48.6561H48.6555H48.6549H48.6543H48.6537H48.6531H48.6525H48.652H48.6514H48.6508H48.6502H48.6496H48.649H48.6484H48.6479H48.6473H48.6467H48.6461H48.6455H48.6449H48.6443H48.6438H48.6432H48.6426H48.642H48.6414H48.6408H48.6402H48.6396H48.6391H48.6385H48.6379H48.6373H48.6367H48.6361H48.6355H48.635H48.6344H48.6338H48.6332H48.6326H48.632H48.6314H48.6309H48.6303H48.6297H48.6291H48.6285H48.6279H48.6273H48.6268H48.6262H48.6256H48.625H48.6244H48.6238H48.6232H48.6227H48.6221H48.6215H48.6209H48.6203H48.6197H48.6191H48.6186H48.618H48.6174H48.6168H48.6162H48.6156H48.615H48.6145H48.6139H48.6133H48.6127H48.6121H48.6115H48.6109H48.6104H48.6098H48.6092H48.6086H48.608H48.6074H48.6068H48.6063H48.6057H48.6051H48.6045H48.6039H48.6033H48.6027H48.6021H48.6016H48.601H48.6004H48.5998H48.5992H48.5986H48.598H48.5975H48.5969H48.5963H48.5957H48.5951H48.5945H48.5939H48.5934H48.5928H48.5922H48.5916H48.591H48.5904H48.5898H48.5893H48.5887H48.5881H48.5875H48.5869H48.5863H48.5857H48.5852H48.5846H48.584H48.5834H48.5828H48.5822H48.5816H48.5811H48.5805H48.5799H48.5793H48.5787H48.5781H48.5775H48.577H48.5764H48.5758H48.5752H48.5746H48.574H48.5734H48.5729H48.5723H48.5717H48.5711H48.5705H48.5699H48.5693H48.5688H48.5682H48.5676H48.567H48.5664H48.5658H48.5652H48.5647H48.5641H48.5635H48.5629H48.5623H48.5617H48.5611H48.5605H48.56H48.5594H48.5588H48.5582H48.5576H48.557H48.5564H48.5559H48.5553H48.5547H48.5541H48.5535H48.5529H48.5523H48.5518H48.5512H48.5506H48.55H48.5494H48.5488H48.5482H48.5477H48.5471H48.5465H48.5459H48.5453H48.5447H48.5441H48.5436H48.543H48.5424H48.5418H48.5412H48.5406H48.54H48.5395H48.5389H48.5383H48.5377H48.5371H48.5365H48.5359H48.5354H48.5348H48.5342H48.5336H48.533H48.5324H48.5318H48.5312H48.5307H48.5301H48.5295H48.5289H48.5283H48.5277H48.5271H48.5266H48.526H48.5254H48.5248H48.5242H48.5236H48.523H48.5225H48.5219H48.5213H48.5207H48.5201H48.5195H48.5189H48.5184H48.5178H48.5172H48.5166H48.516H48.5154H48.5148H48.5143H48.5137H48.5131H48.5125H48.5119H48.5113H48.5107H48.5102H48.5096H48.509H48.5084H48.5078H48.5072H48.5066H48.5061H48.5055H48.5049H48.5043H48.5037H48.5031H48.5025H48.502H48.5014H48.5008H48.5002H48.4996H48.499H48.4984H48.4979H48.4973H48.4967H48.4961H48.4955H48.4949H48.4943H48.4938H48.4932H48.4926H48.492H48.4914H48.4908H48.4902H48.4897H48.4891H48.4885H48.4879H48.4873H48.4867H48.4861H48.4855H48.485H48.4844H48.4838H48.4832H48.4826H48.482H48.4814H48.4809H48.4803H48.4797H48.4791H48.4785H48.4779H48.4773H48.4768H48.4762H48.4756H48.475H48.4744H48.4738H48.4732H48.4727H48.4721H48.4715H48.4709H48.4703H48.4697H48.4691H48.4686H48.468H48.4674H48.4668H48.4662H48.4656H48.465H48.4645H48.4639H48.4633H48.4627H48.4621H48.4615H48.4609H48.4604H48.4598H48.4592H48.4586H48.458H48.4574H48.4568H48.4562H48.4557H48.4551H48.4545H48.4539H48.4533H48.4527H48.4521H48.4516H48.451H48.4504H48.4498H48.4492H48.4486H48.448H48.4475H48.4469H48.4463H48.4457H48.4451H48.4445H48.4439H48.4434H48.4428H48.4422H48.4416H48.441H48.4404H48.4398H48.4393H48.4387H48.4381H48.4375H48.4369H48.4363H48.4357H48.4352H48.4346H48.434H48.4334H48.4328H48.4322H48.4316H48.4311H48.4305H48.4299H48.4293H48.4287H48.4281H48.4275H48.427H48.4264L35.0529 50.7051L34.9724 50.6907L34.8958 50.7191C32.2305 51.7062 29.3659 52.2004 26.5 52.2004C12.3664 52.2004 0.8 40.6355 0.8 26.4004C0.8 12.2661 12.3657 0.700391 26.5 0.700391C40.6336 0.700391 52.2 12.2653 52.2 26.5004C52.2 29.7616 51.6075 32.8247 50.4205 35.8913C49.5296 38.1682 48.3434 40.3413 46.8645 42.2145ZM45.4484 49.1959L45.9965 49.2917L45.7753 48.7811L43.1757 42.7822C43.1757 42.782 43.1756 42.7819 43.1755 42.7817C42.9307 42.2097 43.0842 41.5279 43.5305 40.9924C45.0489 39.1703 46.3664 37.0428 47.2794 34.7097L47.28 34.7081C48.293 32.0742 48.8 29.3377 48.8 26.6004C48.8 14.2347 38.7657 4.20039 26.4 4.20039C14.1343 4.20039 4.1 14.2347 4.1 26.5004C4.1 38.8661 14.1343 48.9004 26.5 48.9004C29.1321 48.9004 31.7619 48.3955 34.1894 47.4873C34.2235 47.4787 34.2562 47.4704 34.2878 47.4624C34.6396 47.373 34.8449 47.3209 35.1272 47.3914L35.1377 47.3941L35.1484 47.3959L45.4484 49.1959ZM34.4 27.0004C34.4 24.2661 36.6657 22.0004 39.4 22.0004C42.1343 22.0004 44.4 24.2661 44.4 27.0004C44.4 29.7347 42.1343 32.0004 39.4 32.0004C36.6657 32.0004 34.4 29.7347 34.4 27.0004ZM37.8 27.1004C37.8 27.9661 38.5343 28.7004 39.4 28.7004C40.2657 28.7004 41 27.9661 41 27.1004C41 26.2347 40.2657 25.5004 39.4 25.5004C38.5343 25.5004 37.8 26.2347 37.8 27.1004ZM21.5 27.0004C21.5 24.2661 23.7657 22.0004 26.5 22.0004C29.2343 22.0004 31.5 24.2661 31.5 27.0004C31.5 29.7347 29.2343 32.0004 26.5 32.0004C23.7657 32.0004 21.5 29.7347 21.5 27.0004ZM24.9 27.1004C24.9 27.9661 25.6343 28.7004 26.5 28.7004C27.3657 28.7004 28.1 27.9661 28.1 27.1004C28.1 26.2347 27.3657 25.5004 26.5 25.5004C25.6343 25.5004 24.9 26.2347 24.9 27.1004ZM8.5 27.0004C8.5 24.2661 10.7657 22.0004 13.5 22.0004C16.2343 22.0004 18.5 24.2661 18.5 27.0004C18.5 29.7347 16.2343 32.0004 13.5 32.0004C10.7657 32.0004 8.5 29.7347 8.5 27.0004ZM11.9 27.1004C11.9 27.9661 12.6343 28.7004 13.5 28.7004C14.3657 28.7004 15.1 27.9661 15.1 27.1004C15.1 26.2347 14.3657 25.5004 13.5 25.5004C12.6343 25.5004 11.9 26.2347 11.9 27.1004Z" fill="#C0346C" stroke="#0F1A27" stroke-width="0.6"/>
</svg>
