<svg width="110" height="110" viewBox="0 0 110 110" fill="none" xmlns="http://www.w3.org/2000/svg">
<path d="M94.0778 12.5325H15.9222C12.6515 12.5325 10 15.1839 10 18.4548V94.643C10 97.1544 13.0362 98.4119 14.812 96.6362L30.7401 80.7082C32.8184 78.6299 35.6373 77.4622 38.5766 77.4622H94.0777C97.3484 77.4622 99.9998 74.8107 99.9998 71.54V18.4548C100 15.1839 97.3485 12.5325 94.0778 12.5325Z" fill="url(#paint0_linear_15_82)"/>
<path d="M99.9983 71.5398V27.3794L94.3569 21.738C93.3967 20.2038 91.6929 19.7471 89.7496 19.7471H20.247C17.2468 19.7471 15.3789 21.615 15.3789 24.6152V66.521C15.3789 68.4643 15.8356 70.1681 17.3698 71.1283L28.8441 82.6025L30.7386 80.7081C32.8168 78.6298 35.6358 77.4621 38.5751 77.4621H94.0761C97.3469 77.462 99.9983 74.8105 99.9983 71.5398Z" fill="url(#paint1_linear_15_82)"/>
<path d="M20.2492 19.1829H89.7518C92.752 19.1829 95.1842 21.615 95.1842 24.6153V94.9454C95.1842 97.188 92.473 98.311 90.8872 96.7253L69.014 74.8519C67.1581 72.996 64.6409 71.9534 62.0163 71.9534H20.2492C17.249 71.9534 14.8167 69.5213 14.8167 66.5209V24.6153C14.8167 21.615 17.249 19.1829 20.2492 19.1829Z" fill="url(#paint2_linear_15_82)"/>
<path d="M95.1831 60.2139L72.5735 37.6045C71.2812 36.0621 69.3414 35.3716 67.1719 35.3716C63.2809 35.3716 60.4175 38.235 60.4175 42.126C60.4175 44.2955 61.1082 46.2353 62.6504 47.5276L95.1829 80.0601V60.2139H95.1831Z" fill="url(#paint3_linear_15_82)"/>
<path d="M53.3099 30.7746C51.6378 28.7792 49.1284 27.8857 46.3215 27.8857C41.2877 27.8857 37.583 31.5904 37.583 36.6242C37.583 39.4312 38.4765 41.9406 40.4718 43.6126L93.9624 97.1031C94.6711 96.6817 95.183 95.9194 95.183 94.9453V72.6477L53.3099 30.7746Z" fill="url(#paint4_linear_15_82)"/>
<path d="M67.304 49.4272C71.2667 49.4272 74.4791 46.2147 74.4791 42.252C74.4791 38.2893 71.2667 35.0769 67.304 35.0769C63.3413 35.0769 60.1289 38.2893 60.1289 42.252C60.1289 46.2147 63.3413 49.4272 67.304 49.4272Z" fill="url(#paint5_linear_15_82)"/>
<path d="M79.2547 56.2715C76.1015 53.4774 71.9527 52.0745 67.4082 52.0745C67.4079 52.0745 67.4063 52.0745 67.4059 52.0745C62.8613 52.0745 58.7126 53.7705 55.5595 56.5648C54.6346 57.3843 54.4143 58.2792 54.4143 59.5148V61.7172C54.4143 62.2997 54.4856 62.7961 54.9985 62.9938L64.207 72.2024C66.0122 72.6126 67.6823 73.5222 69.0122 74.8519L90.8853 96.7251C92.4711 98.3108 95.1824 97.1878 95.1824 94.9452V72.2184L79.2547 56.2715Z" fill="url(#paint6_linear_15_82)"/>
<path d="M67.305 51.6555C67.3047 51.6555 67.3043 51.6555 67.3038 51.6555C67.3034 51.6555 67.3031 51.6555 67.3025 51.6555C62.7131 51.6555 58.5235 53.3683 55.3392 56.1901C54.4054 57.0178 53.8867 58.2176 53.8867 59.4654V61.6895C53.8867 62.4531 54.5058 63.0721 55.2694 63.0721H79.3378C80.1014 63.0721 80.7205 62.4531 80.7205 61.6895V59.4654C80.7205 58.2176 80.202 57.0176 79.268 56.1901C76.0841 53.3683 71.8943 51.6555 67.305 51.6555Z" fill="url(#paint7_linear_15_82)"/>
<path d="M46.3217 45.7389C51.3556 45.7389 55.4364 41.6581 55.4364 36.6242C55.4364 31.5903 51.3556 27.5095 46.3217 27.5095C41.2878 27.5095 37.207 31.5903 37.207 36.6242C37.207 41.6581 41.2878 45.7389 46.3217 45.7389Z" fill="url(#paint8_linear_15_82)"/>
<path d="M69.015 74.8518L90.8882 96.725C92.474 98.3107 95.1852 97.1877 95.1852 94.9451V88.0336L61.5224 54.3297C57.4775 50.7452 52.1552 48.9456 46.3253 48.9456C46.3248 48.9456 46.3228 48.9456 46.3223 48.9456C40.4924 48.9456 35.1701 51.1214 31.1252 54.7059C29.9388 55.7573 29.6562 56.9053 29.6562 58.4905V61.3158C29.6562 62.0631 29.7477 62.6999 30.4055 62.9536L39.4054 71.9534H62.0171C64.6419 71.9533 67.1591 72.9959 69.015 74.8518Z" fill="url(#paint9_linear_15_82)"/>
<path d="M46.3228 48.5693C46.3223 48.5693 46.3218 48.5693 46.3212 48.5693C46.3207 48.5693 46.3202 48.5693 46.3196 48.5693C40.4898 48.5693 35.1674 50.7452 31.1225 54.3297C29.9361 55.3811 29.2773 56.9053 29.2773 58.4905V61.3158C29.2773 62.2859 30.0637 63.0722 31.0338 63.0722H61.6084C62.5784 63.0722 63.3648 62.2859 63.3648 61.3158V58.4905C63.3648 56.9053 62.706 55.3811 61.5196 54.3297C57.4749 50.7452 52.1527 48.5693 46.3228 48.5693Z" fill="url(#paint10_linear_15_82)"/>
<defs>
<linearGradient id="paint0_linear_15_82" x1="37.4117" y1="29.1624" x2="64.4964" y2="70.6356" gradientUnits="userSpaceOnUse">
<stop stop-color="#EBEFF0"/>
<stop offset="1" stop-color="#E3E5E4"/>
</linearGradient>
<linearGradient id="paint1_linear_15_82" x1="73.4861" y1="85.7183" x2="45.057" y2="17.4512" gradientUnits="userSpaceOnUse">
<stop stop-color="#CBD0E4" stop-opacity="0"/>
<stop offset="1" stop-color="#6A7D83"/>
</linearGradient>
<linearGradient id="paint2_linear_15_82" x1="44.5818" y1="18.8774" x2="69.6915" y2="83.2036" gradientUnits="userSpaceOnUse">
<stop stop-color="#7FAEF4"/>
<stop offset="1" stop-color="#4C8DF1"/>
</linearGradient>
<linearGradient id="paint3_linear_15_82" x1="80.211" y1="55.1649" x2="56.6694" y2="31.6233" gradientUnits="userSpaceOnUse">
<stop stop-color="#4C8DF1" stop-opacity="0"/>
<stop offset="1" stop-color="#4256AC"/>
</linearGradient>
<linearGradient id="paint4_linear_15_82" x1="68.6076" y1="58.9102" x2="31.0169" y2="21.3196" gradientUnits="userSpaceOnUse">
<stop stop-color="#4C8DF1" stop-opacity="0"/>
<stop offset="1" stop-color="#4256AC"/>
</linearGradient>
<linearGradient id="paint5_linear_15_82" x1="64.943" y1="39.5455" x2="71.014" y2="46.505" gradientUnits="userSpaceOnUse">
<stop stop-color="#A7C5FD"/>
<stop offset="1" stop-color="#7FAEF4"/>
</linearGradient>
<linearGradient id="paint6_linear_15_82" x1="76.2923" y1="73.0168" x2="71.1196" y2="52.7964" gradientUnits="userSpaceOnUse">
<stop stop-color="#4C8DF1" stop-opacity="0"/>
<stop offset="1" stop-color="#4256AC"/>
</linearGradient>
<linearGradient id="paint7_linear_15_82" x1="64.0327" y1="55.1304" x2="70.2337" y2="64.5869" gradientUnits="userSpaceOnUse">
<stop stop-color="#A7C5FD"/>
<stop offset="1" stop-color="#7FAEF4"/>
</linearGradient>
<linearGradient id="paint8_linear_15_82" x1="43.3226" y1="33.186" x2="51.0346" y2="42.0267" gradientUnits="userSpaceOnUse">
<stop stop-color="#EBEFF0"/>
<stop offset="1" stop-color="#E3E5E4"/>
</linearGradient>
<linearGradient id="paint9_linear_15_82" x1="61.2455" y1="72.2803" x2="50.3937" y2="46.8971" gradientUnits="userSpaceOnUse">
<stop stop-color="#4C8DF1" stop-opacity="0"/>
<stop offset="1" stop-color="#4256AC"/>
</linearGradient>
<linearGradient id="paint10_linear_15_82" x1="42.1661" y1="52.9837" x2="50.0432" y2="64.9963" gradientUnits="userSpaceOnUse">
<stop stop-color="#EBEFF0"/>
<stop offset="1" stop-color="#E3E5E4"/>
</linearGradient>
</defs>
</svg>
