<svg width="114" height="114" viewBox="0 0 114 114" fill="none" xmlns="http://www.w3.org/2000/svg">
<path d="M17.9 87C17.1 87 16.5 86.4 16.5 85.6V28.4C16.5 27.6 17.1 27 17.9 27H96.9C97.7 27 98.3 27.6 98.3 28.4V85.6C98.3 86.4 97.7 87 96.9 87H17.9ZM19.3 84.2H95.5V29.8H19.3V84.2Z" fill="#2B370F"/>
<path d="M103 33.5C103 32.9 103.6 32.5 104.4 32.5C105.2 32.5 105.8 33 105.8 33.5L105.9 81.8C105.9 82.4 105.3 82.8 104.5 82.8C103.7 82.8 103.1 82.3 103.1 81.8L103 33.5Z" fill="#EB4D4B"/>
<path d="M111 38.2998C111 37.6998 111.6 37.2998 112.4 37.2998C113.2 37.2998 113.8 37.7998 113.8 38.2998L113.9 77.0998C113.9 77.6998 113.3 78.0998 112.5 78.0998C111.7 78.0998 111.1 77.5998 111.1 77.0998L111 38.2998Z" fill="#EB4D4B"/>
<path d="M8 32.5C8 31.9 8.6 31.5 9.4 31.5C10.2 31.5 10.8 32 10.8 32.5L10.9 80.8C10.9 81.4 10.3 81.8 9.5 81.8C8.7 81.8 8.1 81.3 8.1 80.8L8 32.5Z" fill="#EB4D4B"/>
<path d="M0 37.2998C0 36.6998 0.6 36.2998 1.4 36.2998C2.2 36.2998 2.8 36.7998 2.8 37.2998L2.9 75.9998C2.9 76.5998 2.3 76.9998 1.5 76.9998C0.7 76.9998 0.1 76.4998 0.1 75.9998L0 37.2998Z" fill="#EB4D4B"/>
</svg>
